<svg width="24" height="24" viewBox="0 0 24 24" fill="none" xmlns="http://www.w3.org/2000/svg">
<path d="M19 7.65039H5C4.80109 7.65039 4.61032 7.57137 4.46967 7.43072C4.32902 7.29007 4.25 7.0993 4.25 6.90039C4.25 6.70148 4.32902 6.51071 4.46967 6.37006C4.61032 6.22941 4.80109 6.15039 5 6.15039H19C19.1989 6.15039 19.3897 6.22941 19.5303 6.37006C19.671 6.51071 19.75 6.70148 19.75 6.90039C19.75 7.0993 19.671 7.29007 19.5303 7.43072C19.3897 7.57137 19.1989 7.65039 19 7.65039Z" fill="#01663E"/>
<path d="M19 12.7505H5C4.80109 12.7505 4.61032 12.6715 4.46967 12.5308C4.32902 12.3902 4.25 12.1994 4.25 12.0005C4.25 11.8016 4.32902 11.6108 4.46967 11.4702C4.61032 11.3295 4.80109 11.2505 5 11.2505H19C19.1989 11.2505 19.3897 11.3295 19.5303 11.4702C19.671 11.6108 19.75 11.8016 19.75 12.0005C19.75 12.1994 19.671 12.3902 19.5303 12.5308C19.3897 12.6715 19.1989 12.7505 19 12.7505Z" fill="#01663E"/>
<path d="M19 17.8503H5C4.80109 17.8503 4.61032 17.7713 4.46967 17.6307C4.32902 17.49 4.25 17.2993 4.25 17.1003C4.25 16.9014 4.32902 16.7107 4.46967 16.57C4.61032 16.4294 4.80109 16.3503 5 16.3503H19C19.1989 16.3503 19.3897 16.4294 19.5303 16.57C19.671 16.7107 19.75 16.9014 19.75 17.1003C19.75 17.2993 19.671 17.49 19.5303 17.6307C19.3897 17.7713 19.1989 17.8503 19 17.8503Z" fill="#01663E"/>
</svg>
